<svg xmlns="http://www.w3.org/2000/svg" xmlns:xlink="http://www.w3.org/1999/xlink" width="40" zoomAndPan="magnify" viewBox="0 0 30 30.000001" height="40" preserveAspectRatio="xMidYMid meet" version="1.0"><defs><clipPath id="1b9815d65b"><path d="M 2.136719 2.902344 L 27.808594 2.902344 L 27.808594 26.128906 L 2.136719 26.128906 Z M 2.136719 2.902344 " clip-rule="nonzero"/></clipPath><clipPath id="75ced2b00e"><path d="M 27.433594 7.8125 C 26.625 5.066406 24.015625 2.902344 20.933594 2.902344 C 18.34375 2.902344 16.09375 4.363281 14.953125 6.511719 C 13.816406 4.363281 11.566406 2.902344 8.976562 2.902344 C 5.75 2.902344 2.929688 5.066406 2.375 8.207031 C 0.96875 16.167969 9.875 22.402344 14.976562 26.128906 C 19.691406 22.683594 29.746094 15.65625 27.433594 7.8125 Z M 27.433594 7.8125 " clip-rule="nonzero"/></clipPath><clipPath id="bda1e488bb"><path d="M 0.136719 0.902344 L 25.808594 0.902344 L 25.808594 24.128906 L 0.136719 24.128906 Z M 0.136719 0.902344 " clip-rule="nonzero"/></clipPath><clipPath id="2ef44583d1"><path d="M 25.433594 5.8125 C 24.625 3.066406 22.015625 0.902344 18.933594 0.902344 C 16.34375 0.902344 14.09375 2.363281 12.953125 4.511719 C 11.816406 2.363281 9.566406 0.902344 6.976562 0.902344 C 3.75 0.902344 0.929688 3.066406 0.375 6.207031 C -1.03125 14.167969 7.875 20.402344 12.976562 24.128906 C 17.691406 20.683594 27.746094 13.65625 25.433594 5.8125 Z M 25.433594 5.8125 " clip-rule="nonzero"/></clipPath><clipPath id="165f5b2431"><rect x="0" width="26" y="0" height="25"/></clipPath></defs><g clip-path="url(#1b9815d65b)"><g clip-path="url(#75ced2b00e)"><g transform="matrix(1, 0, 0, 1, 2, 2)"><g clip-path="url(#165f5b2431)"><g clip-path="url(#bda1e488bb)"><g clip-path="url(#2ef44583d1)"><path fill="#76220b" d="M 0.226562 0.902344 L 25.808594 0.902344 L 25.808594 24.128906 L 0.226562 24.128906 Z M 0.226562 0.902344 " fill-opacity="1" fill-rule="nonzero"/></g></g></g></g></g></g></svg>